PathFileType	4	(X/Y/Z)	C:/Users/beibeiliu/ov580/test_trc/capture2\sequence.38_training_dense_left.trc
DataRate	CameraRate	NumFrames	NumMarkers	Units	OrigDataRate	OrigDataStartFrame	OrigNumFrames
120	120	7	19	mm	120	351	400
Frame#	Time	ThumbCMC			ThumbMCP			ThumbIP			ThumbTip			IndexMCP			IndexPIP			IndexTip			MiddleMCP			MiddlePIP			MiddleTip			RingMCP			RingPIP			RingTip			PinkyMCP			PinkyPIP			PinkyTip			BackHand1			BackHand2			BackHand3	
		X0	Y0	Z0	X1	Y1	Z1	X2	Y2	Z2	X3	Y3	Z3	X4	Y4	Z4	X5	Y5	Z5	X6	Y6	Z6	X7	Y7	Z7	X8	Y8	Z8	X9	Y9	Z9	X10	Y10	Z10	X11	Y11	Z11	X12	Y12	Z12	X13	Y13	Z13	X14	Y14	Z14	X15	Y15	Z15	X16	Y16	Z16	X17	Y17	Z17	X18	Y18	Z18	
350	2.91667	-186.091	29.3734	20.6656	-166.601	52.0582	0.418347	-152.177	60.2243	-20.4196	-132.944	54.6122	-38.4824	-178.934	6.29344	-53.8116	-165.717	15.2294	-74.6248	-146.606	35.5139	-89.7974	-162.402	-11.976	-54.8132	-151.592	-5.88073	-80.2561	-136.99	7.62688	-105.204	-146.095	-16.6235	-41.6299	-129.833	-10.5874	-70.2926	-117.323	4.7311	-89.5861	-124.018	-23.3046	-24.5243	-108.755	-18.4553	-47.4144	-92.4299	-14.9126	-68.1868	-158.666	-25.7294	2.7033	-169.509	-27.1656	31.0857	-188.388	-13.3382	15.3	
351	2.925	-187.328	29.8266	18.8221	-167.926	54.1609	-0.280501	-152.618	62.9206	-22.7836	-135.918	56.6061	-39.2806	-181.048	8.48379	-52.7127	-169.237	16.6375	-73.7602	-147.69	37.7426	-89.8748	-161.544	-11.1901	-52.9175	-156.044	-2.57911	-79.3811	-135.02	9.55034	-100.324	-141.062	-19.6633	-45.6801	-127.3	-11.9661	-69.636	-113.023	1.85055	-85.9735	-125.896	-22.4034	-26.5434	-112.213	-20.2902	-45.6617	-92.6248	-16.9258	-64.9555	-161.788	-25.7042	6.8104	-164.647	-27.6775	31.3431	-190.268	-11.4028	12.9012	
352	2.93333	-185.982	28.7942	18.9735	-169.241	52.4769	1.5925	-153.12	60.6548	-25.4058	-136.914	56.8412	-38.7687	-182.295	7.62894	-51.5791	-170.501	20.919	-78.2876	-147.555	34.5947	-89.2712	-164.552	-10.2788	-51.1419	-152.931	-3.09618	-77.849	-135.076	19.0878	-101.157	-141.23	-20.408	-46.2394	-131.476	-12.6535	-67.9215	-116.558	5.09722	-87.4792	-122.841	-26.4553	-29.0741	-110.981	-21.2651	-47.3957	-94.2616	-18.789	-66.4233	-159.972	-29.3173	3.43682	-163.944	-28.3788	35.3308	-187.997	-13.6708	15.1948	
353	2.94167	-185.246	27.5522	16.8875	-168.485	51.1139	1.16909	-153.916	59.2091	-24.5684	-138.453	57.3725	-39.1885	-179.198	4.52183	-53.602	-167.949	18.0276	-77.5281	-152.178	35.6887	-89.4364	-164.755	-9.31643	-56.326	-150.967	2.88889	-80.0622	-130.484	21.0929	-95.5371	-143.55	-20.8764	-42.5882	-132.407	-12.4849	-69.7759	-119.202	3.85023	-85.6291	-123.917	-27.4882	-28.073	-113.406	-22.2565	-48.8851	-95.2625	-19.5178	-65.2996	-161.228	-27.1127	3.72063	-168.405	-26.7615	34.0444	-190.451	-12.5504	11.7879	
354	2.95	-188.705	30.8081	18.8	-169.685	53.455	-2.00779	-155.657	60.6045	-24.8564	-137.857	56.0094	-42.4551	-183.019	5.14826	-52.0184	-170.037	16.8458	-76.8223	-154.394	33.9803	-88.4503	-162.45	-11.2057	-51.277	-148.839	3.15083	-78.739	-128.731	23.7584	-89.5362	-146.438	-20.2757	-43.7388	-133.675	-12.1156	-69.2686	-116.612	6.0307	-84.9721	-129.622	-24.9516	-26.348	-111.591	-24.5331	-48.9514	-100.365	-19.4834	-68.1864	-164.525	-28.5083	6.15274	-168.493	-30.2168	36.8727	-189.942	-11.3772	15.7702	
355	2.95833	-188.755	29.8508	19.5165	-170.41	53.6246	-1.23646	-155.683	60.5537	-26.6705	-141.223	60.1996	-42.0229	-181.647	3.74872	-52.0799	-168.813	15.2627	-77.7062	-155.334	32.2708	-88.614	-160.826	-10.9395	-55.0862	-148.59	3.92281	-77.1656	-126.76	26.4384	-84.0746	-145.713	-21.489	-42.0482	-132.705	-12.1589	-69.1153	-119.407	6.08198	-83.3294	-126.899	-27.5343	-28.8871	-115.093	-23.0847	-49.6876	-97.1222	-20.6667	-67.8569	-160.495	-30.0111	7.32011	-170.472	-28.408	33.642	-192.529	-11.7036	11.2931	
356	2.96667	-190.003	29.267	18.575	-169.778	50.1179	-1.86956	-156.97	58.5537	-21.7604	-140.005	59.3935	-45.5296	-183.449	3.70479	-52.727	-173.414	12.4593	-74.9889	-150.551	31.055	-88.315	-163.119	-11.0003	-52.4198	-145.793	4.68989	-75.1861	-124.822	32.362	-79.2988	-149.273	-20.3139	-44.0191	-133.564	-12.0196	-69.2078	-115.504	7.48106	-82.8328	-131.295	-26.6367	-29.5192	-116.97	-24.4506	-50.0573	-101.171	-20.1186	-69.631	-161.192	-28.6933	6.61466	-171.175	-26.8335	36.6185	-194.506	-12.2467	12.6906	
